<?xml version="1.0" encoding="UTF-8" standalone="no"?>
<!-- Created with Inkscape (http://www.inkscape.org/) -->

<svg
   width="42.630989mm"
   height="27.057262mm"
   viewBox="0 0 42.630989 27.057262"
   version="1.1"
   id="svg1"
   inkscape:version="1.3.2 (091e20e, 2023-11-25)"
   sodipodi:docname="logo.svg"
   xmlns:inkscape="http://www.inkscape.org/namespaces/inkscape"
   xmlns:sodipodi="http://sodipodi.sourceforge.net/DTD/sodipodi-0.dtd"
   xmlns="http://www.w3.org/2000/svg"
   xmlns:svg="http://www.w3.org/2000/svg">
  <sodipodi:namedview
     id="namedview1"
     pagecolor="#ffffff"
     bordercolor="#000000"
     borderopacity="0.25"
     inkscape:showpageshadow="2"
     inkscape:pageopacity="0.0"
     inkscape:pagecheckerboard="0"
     inkscape:deskcolor="#d1d1d1"
     inkscape:document-units="mm"
     inkscape:zoom="1.6819304"
     inkscape:cx="142.99046"
     inkscape:cy="89.183238"
     inkscape:window-width="1352"
     inkscape:window-height="983"
     inkscape:window-x="39"
     inkscape:window-y="44"
     inkscape:window-maximized="0"
     inkscape:current-layer="layer1" />
  <defs
     id="defs1" />
  <g
     inkscape:label="Layer 1"
     inkscape:groupmode="layer"
     id="layer1"
     transform="translate(-9.5957967,-8.6521851)">
    <path
       id="rect1"
       style="fill:#000000;stroke-width:0.348233"
       d="m 12.093319,8.6521851 c -1.383721,0 -2.4975223,1.2370907 -2.4975223,2.7739909 v 21.508765 c 0,1.536899 1.1138013,2.774507 2.4975223,2.774507 h 37.635429 c 1.38372,0 2.498038,-1.237608 2.498038,-2.774507 V 11.426176 c 0,-1.5369002 -1.114318,-2.7739909 -2.498038,-2.7739909 z m 31.486967,2.4308589 c 0.812799,0 1.557673,0.09279 2.235005,0.279053 0.694266,0.169333 1.28712,0.457631 1.778186,0.86403 0.508,0.389466 0.897471,0.897405 1.168405,1.523938 0.287866,0.609599 0.431498,1.346085 0.431498,2.209684 v 0.50798 h -3.505213 c 0,-0.863599 -0.15202,-1.524075 -0.456819,-1.981275 -0.3048,-0.474133 -0.812739,-0.711067 -1.523938,-0.711067 -0.4064,0 -0.745543,0.05923 -1.016476,0.177766 -0.270933,0.118534 -0.490575,0.279459 -0.659908,0.482658 -0.1524,0.186267 -0.262479,0.406425 -0.330212,0.660425 -0.0508,0.254 -0.07648,0.516616 -0.07648,0.787549 0,0.558799 0.118467,1.032669 0.355534,1.422135 0.237066,0.372533 0.745005,0.719548 1.523938,1.041281 l 2.819466,1.219563 c 0.694266,0.3048 1.261438,0.626133 1.701705,0.964799 0.440266,0.321733 0.787797,0.677652 1.041796,1.067119 0.270934,0.372533 0.457023,0.787169 0.558623,1.244368 0.1016,0.4572 0.152445,0.965139 0.152445,1.523938 0,1.913465 -0.558784,3.310426 -1.676383,4.190959 -1.100666,0.863599 -2.641776,1.295528 -4.622974,1.295528 -2.065864,0 -3.547224,-0.448705 -4.44469,-1.346171 -0.880532,-0.897466 -1.320849,-2.184348 -1.320849,-3.860746 v -0.73639 h 3.657657 v 0.533301 c 0,0.423333 0.03355,0.812805 0.101286,1.168404 0.06773,0.338667 0.194589,0.626447 0.380856,0.863514 0.186266,0.237066 0.432106,0.423155 0.736905,0.558622 0.321733,0.135466 0.719593,0.203088 1.193726,0.203088 0.558799,0 1.05835,-0.177701 1.498617,-0.533301 0.457199,-0.372533 0.685746,-0.939705 0.685746,-1.701705 0,-0.406399 -0.05923,-0.753413 -0.177767,-1.04128 -0.1016,-0.304799 -0.279301,-0.575803 -0.533301,-0.81287 -0.254,-0.237066 -0.592626,-0.448837 -1.015959,-0.635103 -0.406399,-0.2032 -0.914338,-0.406066 -1.523938,-0.609265 -0.8128,-0.270933 -1.515733,-0.567619 -2.108399,-0.889352 -0.592666,-0.321733 -1.092217,-0.693911 -1.498617,-1.117244 -0.389466,-0.440266 -0.677246,-0.939817 -0.863513,-1.498617 -0.186266,-0.575733 -0.279569,-1.236208 -0.279569,-1.981274 0,-1.794932 0.499551,-3.13266 1.498616,-4.013192 0.999066,-0.880532 2.370863,-1.32085 4.114995,-1.32085 z m -31.75,0.355534 h 5.994466 c 1.269999,0 2.294265,0.211771 3.073197,0.635104 0.778933,0.406399 1.380175,0.998736 1.803508,1.777669 0.440266,0.761999 0.736434,1.685091 0.888834,2.768823 0.1524,1.083732 0.228927,2.294605 0.228927,3.632337 0,1.591731 -0.101691,2.980305 -0.304891,4.165637 -0.186266,1.168399 -0.516504,2.133431 -0.990637,2.89543 -0.474133,0.762 -1.109444,1.329172 -1.90531,1.701705 -0.795866,0.372533 -1.803356,0.558622 -3.022555,0.558622 h -5.765539 z m 13.436389,0 H 36.84943 v 2.997233 H 32.886882 V 29.573905 H 29.229224 V 14.435811 h -3.962549 z m -9.778731,2.692342 v 12.750643 h 1.625223 c 0.643466,0 1.16031,-0.110079 1.549777,-0.330212 0.389466,-0.220133 0.694022,-0.583924 0.914156,-1.091923 0.237066,-0.508 0.389603,-1.176863 0.457336,-2.006596 0.08467,-0.829732 0.127124,-1.862904 0.127124,-3.099036 0,-1.032932 -0.03407,-1.938731 -0.101803,-2.717663 -0.06773,-0.778933 -0.211365,-1.422632 -0.431498,-1.930632 -0.2032,-0.524932 -0.516661,-0.914404 -0.939994,-1.168404 -0.4064,-0.270933 -0.956796,-0.406177 -1.651062,-0.406177 z m 14.104048,16.731796 c 0.124178,0 0.238101,0.01392 0.341581,0.04237 0.106069,0.02587 0.196278,0.06969 0.271302,0.131775 0.07761,0.0595 0.137408,0.137341 0.1788,0.233061 0.04398,0.09313 0.06563,0.205508 0.06563,0.337447 v 0.07803 h -0.535368 c 0,-0.131937 -0.0232,-0.232974 -0.06976,-0.302823 -0.04657,-0.07244 -0.124405,-0.108521 -0.233061,-0.108521 -0.06209,0 -0.113636,0.0088 -0.155029,0.02687 -0.04139,0.01811 -0.0749,0.04285 -0.100769,0.0739 -0.02328,0.02846 -0.0403,0.06196 -0.05064,0.100769 -0.0078,0.03881 -0.01137,0.07901 -0.01137,0.120406 0,0.08537 0.01804,0.157539 0.05426,0.217041 0.03622,0.05692 0.11354,0.11001 0.232544,0.159164 l 0.430981,0.186552 c 0.106069,0.04657 0.19267,0.09554 0.259933,0.147277 0.06726,0.04915 0.120357,0.103279 0.159163,0.162781 0.04139,0.05691 0.06974,0.12032 0.08527,0.190169 0.01552,0.06985 0.02325,0.147689 0.02325,0.233061 0,0.292335 -0.08557,0.505745 -0.256315,0.640271 -0.168157,0.131939 -0.403216,0.197921 -0.7059,0.197921 -0.315617,0 -0.541915,-0.06856 -0.679028,-0.205672 -0.134526,-0.137113 -0.202055,-0.333513 -0.202055,-0.589628 v -0.112655 h 0.558622 v 0.08113 c 0,0.06468 0.0052,0.124473 0.0155,0.1788 0.01035,0.05174 0.02994,0.09556 0.0584,0.131775 0.02846,0.03622 0.06609,0.06457 0.112654,0.08527 0.04915,0.0207 0.109981,0.03101 0.182418,0.03101 0.08537,0 0.161664,-0.0268 0.228927,-0.08113 0.06985,-0.05692 0.104903,-0.143515 0.104903,-0.259932 0,-0.06209 -0.0093,-0.115184 -0.02739,-0.159164 -0.01552,-0.04657 -0.04284,-0.08832 -0.08165,-0.12454 -0.03881,-0.03622 -0.09035,-0.06818 -0.15503,-0.09663 -0.06209,-0.03104 -0.139928,-0.06249 -0.23306,-0.09353 -0.124178,-0.04139 -0.231398,-0.08624 -0.321945,-0.135392 -0.09055,-0.04915 -0.166837,-0.106373 -0.228926,-0.171049 -0.0595,-0.06726 -0.103318,-0.143555 -0.131775,-0.228927 -0.02846,-0.08796 -0.04289,-0.188994 -0.04289,-0.302824 0,-0.274225 0.07629,-0.478356 0.228927,-0.612882 0.152635,-0.134526 0.362437,-0.201538 0.628902,-0.201538 z m 8.765873,0 c 0.124178,0 0.2381,0.01392 0.341582,0.04237 0.106068,0.02587 0.196794,0.06969 0.271818,0.131775 0.07761,0.0595 0.136891,0.137341 0.178283,0.233061 0.04398,0.09313 0.06615,0.205508 0.06615,0.337447 v 0.07803 H 38.68033 c 0,-0.131937 -0.02371,-0.232974 -0.07028,-0.302823 -0.04657,-0.07244 -0.123888,-0.108521 -0.232544,-0.108521 -0.06209,0 -0.113636,0.0088 -0.155029,0.02687 -0.04139,0.01811 -0.07541,0.04285 -0.101286,0.0739 -0.02328,0.02846 -0.03978,0.06196 -0.05013,0.100769 -0.0078,0.03881 -0.01188,0.07901 -0.01188,0.120406 0,0.08537 0.01804,0.157539 0.05426,0.217041 0.03622,0.05692 0.114057,0.11001 0.233061,0.159164 l 0.430464,0.186552 c 0.106069,0.04657 0.19267,0.09554 0.259933,0.147277 0.06726,0.04915 0.120358,0.103279 0.159163,0.162781 0.04139,0.05691 0.07026,0.12032 0.08578,0.190169 0.01552,0.06985 0.02325,0.147689 0.02325,0.233061 0,0.292335 -0.08557,0.505745 -0.256315,0.640271 -0.168157,0.131939 -0.403733,0.197921 -0.706417,0.197921 -0.315617,0 -0.541915,-0.06856 -0.679028,-0.205672 -0.134526,-0.137113 -0.201538,-0.333513 -0.201538,-0.589628 v -0.112655 h 0.558622 v 0.08113 c 0,0.06468 0.0052,0.124473 0.0155,0.1788 0.01035,0.05174 0.02994,0.09556 0.05839,0.131775 0.02846,0.03622 0.06557,0.06457 0.112137,0.08527 0.04915,0.0207 0.109981,0.03101 0.182418,0.03101 0.08537,0 0.161664,-0.0268 0.228927,-0.08113 0.06985,-0.05692 0.104903,-0.143515 0.104903,-0.259932 0,-0.06209 -0.0088,-0.115184 -0.02687,-0.159164 -0.01552,-0.04657 -0.04284,-0.08832 -0.08165,-0.12454 -0.03881,-0.03622 -0.09035,-0.06818 -0.15503,-0.09663 -0.06209,-0.03104 -0.139927,-0.06249 -0.233061,-0.09353 -0.124176,-0.04139 -0.231397,-0.08624 -0.321944,-0.135392 -0.09055,-0.04915 -0.166837,-0.106373 -0.228926,-0.171049 -0.0595,-0.06726 -0.103835,-0.143555 -0.132292,-0.228927 -0.02846,-0.08796 -0.04238,-0.188994 -0.04238,-0.302824 0,-0.274225 0.07629,-0.478356 0.228927,-0.612882 0.152635,-0.134526 0.361922,-0.201538 0.628385,-0.201538 z m 8.56847,0 c 0.209549,0 0.376566,0.03608 0.500744,0.10852 0.124178,0.06985 0.218511,0.167791 0.283187,0.294556 0.06726,0.126765 0.110048,0.279864 0.128158,0.45837 0.0207,0.175918 0.03101,0.368193 0.03101,0.577742 0,0.212137 -0.01031,0.406475 -0.03101,0.582394 -0.01811,0.175918 -0.0609,0.326954 -0.128158,0.453719 -0.06468,0.126765 -0.159009,0.224192 -0.283187,0.291455 -0.124178,0.06726 -0.291195,0.100769 -0.500744,0.100769 -0.20955,0 -0.376567,-0.03351 -0.500745,-0.100769 -0.124178,-0.06726 -0.219541,-0.16469 -0.286804,-0.291455 -0.06468,-0.126765 -0.107461,-0.277801 -0.128158,-0.453719 -0.01811,-0.175919 -0.02739,-0.370257 -0.02739,-0.582394 0,-0.209549 0.0093,-0.401824 0.02739,-0.577742 0.0207,-0.178506 0.06348,-0.331605 0.128158,-0.45837 0.06726,-0.126765 0.162626,-0.224706 0.286804,-0.294556 0.124178,-0.07244 0.291195,-0.10852 0.500745,-0.10852 z m -35.266582,0.05426 h 0.915707 c 0.194028,0 0.350735,0.03196 0.469739,0.09664 0.119002,0.06209 0.210759,0.152814 0.275435,0.271818 0.06726,0.116417 0.112626,0.257659 0.135909,0.42323 0.02328,0.16557 0.03514,0.350112 0.03514,0.554488 0,0.243181 -0.01598,0.455561 -0.04703,0.636654 -0.02846,0.178504 -0.07846,0.325933 -0.150895,0.44235 -0.07244,0.116417 -0.169864,0.203018 -0.291455,0.259932 -0.121591,0.05691 -0.275205,0.08527 -0.46147,0.08527 h -0.881084 z m 2.739885,0 h 0.690397 l 0.733805,2.770373 h -0.582393 l -0.128158,-0.58601 h -0.736906 l -0.128157,0.58601 h -0.582393 z m 1.257287,0 h 1.769401 v 0.457853 h -0.605131 v 2.31252 h -0.559139 v -2.31252 h -0.605131 z m 2.335775,0 h 0.690914 l 0.733289,2.770373 h -0.581877 l -0.128158,-0.58601 h -0.737422 l -0.128158,0.58601 h -0.581876 z m 2.258777,0 h 1.769401 v 0.457853 h -0.605131 v 2.31252 h -0.559139 v -2.31252 h -0.605131 z m 2.010213,0 h 1.031979 c 0.232832,0 0.413767,0.05928 0.543119,0.178284 0.129352,0.116415 0.194303,0.294774 0.194303,0.535367 0,0.186267 -0.03763,0.33885 -0.112654,0.457854 -0.07502,0.116416 -0.191524,0.191677 -0.349333,0.225309 v 0.0078 c 0.1397,0.0207 0.241765,0.06606 0.306441,0.135909 0.06468,0.06985 0.104884,0.182226 0.120406,0.337447 0.0052,0.05174 0.0093,0.108962 0.01189,0.171049 0.0026,0.0595 0.0052,0.126514 0.0078,0.201539 0.0052,0.14746 0.01291,0.259836 0.02325,0.337447 0.01552,0.07761 0.04903,0.130706 0.100769,0.159163 v 0.02325 h -0.605131 c -0.02846,-0.0388 -0.0465,-0.08262 -0.05426,-0.131774 -0.0078,-0.05174 -0.01292,-0.104836 -0.0155,-0.159164 l -0.01602,-0.53175 c -0.0052,-0.108656 -0.03198,-0.19371 -0.08113,-0.255799 -0.04915,-0.06209 -0.132147,-0.09353 -0.248564,-0.09353 h -0.29869 v 1.172021 H 22.26169 Z m 2.696993,0 h 0.690397 l 0.733806,2.770373 h -0.582394 l -0.128157,-0.58601 h -0.736906 l -0.128158,0.58601 h -0.582393 z m 1.617989,0 h 0.644405 l 0.674895,1.897559 h 0.0078 v -1.897559 h 0.512114 v 2.770373 H 27.7797 l -0.683163,-1.939933 h -0.0078 v 1.939933 h -0.512114 z m 4.241602,0 H 32.3665 v 0.457853 h -0.989604 v 0.65164 h 0.931209 v 0.457853 h -0.931209 v 1.203027 h -0.558622 z m 1.796789,0 h 1.548226 v 0.457853 h -0.989603 v 0.65164 h 0.931209 v 0.457853 h -0.931209 v 0.745174 h 1.028361 v 0.457853 h -1.586984 z m 1.866553,0 h 1.031979 c 0.232832,0 0.413767,0.05928 0.543119,0.178284 0.129352,0.116415 0.194303,0.294774 0.194303,0.535367 0,0.186267 -0.03763,0.33885 -0.112654,0.457854 -0.07502,0.116416 -0.191524,0.191677 -0.349333,0.225309 v 0.0078 c 0.1397,0.0207 0.241765,0.06606 0.306441,0.135909 0.06468,0.06985 0.104884,0.182226 0.120406,0.337447 0.0052,0.05174 0.0093,0.108962 0.01189,0.171049 0.0026,0.0595 0.0052,0.126514 0.0078,0.201539 0.0052,0.14746 0.01291,0.259836 0.02325,0.337447 0.01552,0.07761 0.04903,0.130706 0.100769,0.159163 v 0.02325 h -0.605131 c -0.02846,-0.0388 -0.04702,-0.08262 -0.05478,-0.131774 -0.0078,-0.05174 -0.01292,-0.104836 -0.0155,-0.159164 l -0.0155,-0.53175 c -0.0052,-0.108656 -0.03198,-0.19371 -0.08113,-0.255799 -0.04915,-0.06209 -0.132147,-0.09353 -0.248564,-0.09353 h -0.29869 v 1.172021 h -0.558622 z m 4.955253,0 h 1.769401 v 0.457853 h -0.605131 v 2.31252 H 40.042 v -2.31252 h -0.605131 z m 2.336292,0 h 0.690397 l 0.733289,2.770373 H 42.61497 l -0.128158,-0.58601 H 41.74939 l -0.127641,0.58601 h -0.582394 z m 1.257287,0 h 1.769401 v 0.457853 h -0.605647 v 2.31252 h -0.558623 v -2.31252 h -0.605131 z m 2.037085,0 h 0.558623 v 2.770373 h -0.558623 z m 3.131592,0 h 0.644405 l 0.674894,1.897559 h 0.0078 v -1.897559 h 0.512113 v 2.770373 H 49.402153 L 48.71899,31.747416 h -0.0078 v 1.939933 h -0.512114 z m -1.27279,0.357084 c -0.08279,0 -0.150314,0.01907 -0.202055,0.05788 -0.04915,0.03622 -0.08781,0.09601 -0.116272,0.1788 -0.02587,0.08279 -0.04391,0.188458 -0.05426,0.31781 -0.0078,0.129352 -0.01137,0.28709 -0.01137,0.473356 0,0.186267 0.0036,0.345552 0.01137,0.477491 0.01035,0.12935 0.02839,0.235541 0.05426,0.318326 0.02846,0.0802 0.06712,0.139478 0.116272,0.178284 0.05174,0.03622 0.119269,0.05426 0.202055,0.05426 0.08279,0 0.148767,-0.01804 0.19792,-0.05426 0.05174,-0.03881 0.0904,-0.09808 0.116272,-0.178284 0.02846,-0.08279 0.0465,-0.188976 0.05426,-0.318326 0.01035,-0.131939 0.0155,-0.291224 0.0155,-0.477491 0,-0.186266 -0.0052,-0.344004 -0.0155,-0.473356 -0.0078,-0.129352 -0.0258,-0.235025 -0.05426,-0.31781 -0.02587,-0.08279 -0.06453,-0.142582 -0.116272,-0.1788 -0.04915,-0.03881 -0.115135,-0.05788 -0.19792,-0.05788 z m -34.707959,0.05426 v 1.947685 h 0.248563 c 0.09831,0 0.177176,-0.01649 0.236678,-0.05013 0.0595,-0.03363 0.105895,-0.0893 0.139527,-0.166915 0.03622,-0.07761 0.05993,-0.179676 0.07028,-0.306441 0.01294,-0.126765 0.01912,-0.285019 0.01912,-0.473873 0,-0.157809 -0.0052,-0.295958 -0.0155,-0.414962 -0.01035,-0.119004 -0.03251,-0.217461 -0.06615,-0.295072 -0.03104,-0.0802 -0.07847,-0.139478 -0.143144,-0.178284 -0.06209,-0.04139 -0.146112,-0.06201 -0.252181,-0.06201 z m 10.601936,0 v 0.799435 h 0.233061 c 0.134526,0 0.237622,-0.03145 0.310059,-0.09354 0.07244,-0.06468 0.109037,-0.171896 0.109037,-0.321944 0,-0.256116 -0.129386,-0.383956 -0.38809,-0.383956 z m 12.219926,0 v 0.799435 h 0.232544 c 0.134526,0 0.238139,-0.03145 0.310576,-0.09354 0.07244,-0.06468 0.10852,-0.171896 0.10852,-0.321944 0,-0.256116 -0.129386,-0.383956 -0.38809,-0.383956 z m -20.299019,0.06976 -0.268201,1.245403 h 0.543636 L 14.748971,31.39808 Z m 3.593062,0 -0.267684,1.245403 h 0.54312 L 18.342033,31.39808 Z m 6.965467,0 -0.267684,1.245403 H 25.5757 L 25.307499,31.39808 Z m 16.814477,0 -0.267684,1.245403 h 0.543636 l -0.2682,-1.245403 z" />
  </g>
</svg>
