<?xml version="1.0" encoding="UTF-8" standalone="no"?>
<!-- Created with Inkscape (http://www.inkscape.org/) -->

<svg
   width="210mm"
   height="297mm"
   viewBox="0 0 210 297"
   version="1.1"
   id="svg1"
   inkscape:version="1.3.2 (091e20e, 2023-11-25)"
   sodipodi:docname="logo.svg"
   xmlns:inkscape="http://www.inkscape.org/namespaces/inkscape"
   xmlns:sodipodi="http://sodipodi.sourceforge.net/DTD/sodipodi-0.dtd"
   xmlns="http://www.w3.org/2000/svg"
   xmlns:svg="http://www.w3.org/2000/svg">
  <sodipodi:namedview
     id="namedview1"
     pagecolor="#ffffff"
     bordercolor="#000000"
     borderopacity="0.25"
     inkscape:showpageshadow="2"
     inkscape:pageopacity="0.0"
     inkscape:pagecheckerboard="0"
     inkscape:deskcolor="#d1d1d1"
     inkscape:document-units="mm"
     inkscape:zoom="1.6819304"
     inkscape:cx="179.25831"
     inkscape:cy="121.88376"
     inkscape:window-width="1352"
     inkscape:window-height="983"
     inkscape:window-x="49"
     inkscape:window-y="47"
     inkscape:window-maximized="0"
     inkscape:current-layer="layer1" />
  <defs
     id="defs1" />
  <g
     inkscape:label="Layer 1"
     inkscape:groupmode="layer"
     id="layer1">
    <path
       id="rect1"
       style="fill:#000000;stroke-width:0.348233"
       d="M 12.093319 8.6521851 C 10.709598 8.6521851 9.5957967 9.8892758 9.5957967 11.426176 L 9.5957967 32.934941 C 9.5957967 34.47184 10.709598 35.709448 12.093319 35.709448 L 49.728748 35.709448 C 51.112468 35.709448 52.226786 34.47184 52.226786 32.934941 L 52.226786 11.426176 C 52.226786 9.8892758 51.112468 8.6521851 49.728748 8.6521851 L 12.093319 8.6521851 z M 43.580286 11.083044 C 44.393085 11.083044 45.137959 11.175831 45.815291 11.362097 C 46.509557 11.53143 47.102411 11.819728 47.593477 12.226127 C 48.101477 12.615593 48.490948 13.123532 48.761882 13.750065 C 49.049748 14.359664 49.19338 15.09615 49.19338 15.959749 L 49.19338 16.467729 L 45.688167 16.467729 C 45.688167 15.60413 45.536147 14.943654 45.231348 14.486454 C 44.926548 14.012321 44.418609 13.775387 43.70741 13.775387 C 43.30101 13.775387 42.961867 13.83462 42.690934 13.953153 C 42.420001 14.071687 42.200359 14.232612 42.031026 14.435811 C 41.878626 14.622078 41.768547 14.842236 41.700814 15.096236 C 41.650014 15.350236 41.624333 15.612852 41.624333 15.883785 C 41.624333 16.442584 41.7428 16.916454 41.979867 17.30592 C 42.216933 17.678453 42.724872 18.025468 43.503805 18.347201 L 46.323271 19.566764 C 47.017537 19.871564 47.584709 20.192897 48.024976 20.531563 C 48.465242 20.853296 48.812773 21.209215 49.066772 21.598682 C 49.337706 21.971215 49.523795 22.385851 49.625395 22.84305 C 49.726995 23.30025 49.77784 23.808189 49.77784 24.366988 C 49.77784 26.280453 49.219056 27.677414 48.101457 28.557947 C 47.000791 29.421546 45.459681 29.853475 43.478483 29.853475 C 41.412619 29.853475 39.931259 29.40477 39.033793 28.507304 C 38.153261 27.609838 37.712944 26.322956 37.712944 24.646558 L 37.712944 23.910168 L 41.370601 23.910168 L 41.370601 24.443469 C 41.370601 24.866802 41.404154 25.256274 41.471887 25.611873 C 41.53962 25.95054 41.666476 26.23832 41.852743 26.475387 C 42.039009 26.712453 42.284849 26.898542 42.589648 27.034009 C 42.911381 27.169475 43.309241 27.237097 43.783374 27.237097 C 44.342173 27.237097 44.841724 27.059396 45.281991 26.703796 C 45.73919 26.331263 45.967737 25.764091 45.967737 25.002091 C 45.967737 24.595692 45.908503 24.248678 45.78997 23.960811 C 45.68837 23.656012 45.510669 23.385008 45.256669 23.147941 C 45.002669 22.910875 44.664043 22.699104 44.24071 22.512838 C 43.834311 22.309638 43.326372 22.106772 42.716772 21.903573 C 41.903973 21.63264 41.20104 21.335954 40.608374 21.014221 C 40.015708 20.692488 39.516157 20.32031 39.109757 19.896977 C 38.720291 19.456711 38.432511 18.95716 38.246244 18.39836 C 38.059978 17.822627 37.966675 17.162152 37.966675 16.417086 C 37.966675 14.622154 38.466226 13.284426 39.465291 12.403894 C 40.464357 11.523362 41.836154 11.083044 43.580286 11.083044 z M 11.830286 11.438578 L 17.824752 11.438578 C 19.094751 11.438578 20.119017 11.650349 20.897949 12.073682 C 21.676882 12.480081 22.278124 13.072418 22.701457 13.851351 C 23.141723 14.61335 23.437891 15.536442 23.590291 16.620174 C 23.742691 17.703906 23.819218 18.914779 23.819218 20.252511 C 23.819218 21.844242 23.717527 23.232816 23.514327 24.418148 C 23.328061 25.586547 22.997823 26.551579 22.52369 27.313578 C 22.049557 28.075578 21.414246 28.64275 20.61838 29.015283 C 19.822514 29.387816 18.815024 29.573905 17.595825 29.573905 L 11.830286 29.573905 L 11.830286 11.438578 z M 25.266675 11.438578 L 36.84943 11.438578 L 36.84943 14.435811 L 32.886882 14.435811 L 32.886882 29.573905 L 29.229224 29.573905 L 29.229224 14.435811 L 25.266675 14.435811 L 25.266675 11.438578 z M 15.487944 14.13092 L 15.487944 26.881563 L 17.113167 26.881563 C 17.756633 26.881563 18.273477 26.771484 18.662944 26.551351 C 19.05241 26.331218 19.356966 25.967427 19.5771 25.459428 C 19.814166 24.951428 19.966703 24.282565 20.034436 23.452832 C 20.119103 22.6231 20.16156 21.589928 20.16156 20.353796 C 20.16156 19.320864 20.127491 18.415065 20.059757 17.636133 C 19.992024 16.8572 19.848392 16.213501 19.628259 15.705501 C 19.425059 15.180569 19.111598 14.791097 18.688265 14.537097 C 18.281865 14.266164 17.731469 14.13092 17.037203 14.13092 L 15.487944 14.13092 z M 29.591992 30.862716 C 29.71617 30.862716 29.830093 30.876633 29.933573 30.90509 C 30.039642 30.930961 30.129851 30.974776 30.204875 31.036865 C 30.282486 31.096367 30.342283 31.174206 30.383675 31.269926 C 30.427655 31.363059 30.449304 31.475434 30.449304 31.607373 L 30.449304 31.685404 L 29.913936 31.685404 C 29.913936 31.553467 29.89074 31.45243 29.844173 31.382581 C 29.797607 31.310144 29.719768 31.27406 29.611112 31.27406 C 29.549025 31.27406 29.497476 31.282823 29.456083 31.300932 C 29.414691 31.319041 29.381185 31.343785 29.355314 31.374829 C 29.332031 31.403287 29.315019 31.436793 29.304671 31.475598 C 29.29691 31.514404 29.293302 31.554612 29.293302 31.596004 C 29.293302 31.681376 29.311344 31.753543 29.347563 31.813045 C 29.383781 31.86996 29.461103 31.923055 29.580107 31.972209 L 30.011088 32.158761 C 30.117157 32.205327 30.203758 32.254298 30.271021 32.306038 C 30.338282 32.355192 30.391378 32.409317 30.430184 32.468819 C 30.471577 32.525734 30.499928 32.589139 30.51545 32.658988 C 30.530972 32.728838 30.538704 32.806677 30.538704 32.892049 C 30.538704 33.184384 30.453134 33.397794 30.282389 33.53232 C 30.114232 33.664259 29.879173 33.730241 29.576489 33.730241 C 29.260872 33.730241 29.034574 33.661682 28.897461 33.524569 C 28.762935 33.387456 28.695406 33.191056 28.695406 32.934941 L 28.695406 32.822286 L 29.254028 32.822286 L 29.254028 32.903418 C 29.254028 32.968094 29.259183 33.027891 29.269531 33.082218 C 29.279879 33.133959 29.299468 33.177775 29.327926 33.213993 C 29.356383 33.250212 29.394014 33.278563 29.44058 33.299259 C 29.489734 33.319956 29.550561 33.330265 29.622998 33.330265 C 29.70837 33.330265 29.784662 33.303461 29.851925 33.249133 C 29.921775 33.192218 29.956828 33.105618 29.956828 32.989201 C 29.956828 32.927112 29.947549 32.874017 29.929439 32.830037 C 29.913917 32.783471 29.886595 32.741716 29.847791 32.705497 C 29.808985 32.669279 29.757437 32.63732 29.692761 32.608862 C 29.630672 32.577818 29.552833 32.546372 29.459701 32.515328 C 29.335523 32.473935 29.228303 32.429089 29.137756 32.379936 C 29.04721 32.330782 28.970919 32.273563 28.90883 32.208887 C 28.849328 32.141624 28.805512 32.065332 28.777055 31.97996 C 28.748597 31.892001 28.734163 31.790966 28.734163 31.677136 C 28.734163 31.402911 28.810455 31.19878 28.96309 31.064254 C 29.115725 30.929728 29.325527 30.862716 29.591992 30.862716 z M 38.357865 30.862716 C 38.482043 30.862716 38.595965 30.876633 38.699447 30.90509 C 38.805515 30.930961 38.896241 30.974776 38.971265 31.036865 C 39.048876 31.096367 39.108156 31.174206 39.149548 31.269926 C 39.193528 31.363059 39.215694 31.475434 39.215694 31.607373 L 39.215694 31.685404 L 38.680326 31.685404 C 38.680326 31.553467 38.656613 31.45243 38.610046 31.382581 C 38.56348 31.310144 38.486158 31.27406 38.377502 31.27406 C 38.315415 31.27406 38.263866 31.282823 38.222473 31.300932 C 38.181081 31.319041 38.147058 31.343785 38.121187 31.374829 C 38.097904 31.403287 38.081409 31.436793 38.071061 31.475598 C 38.0633 31.514404 38.059176 31.554612 38.059176 31.596004 C 38.059176 31.681376 38.077217 31.753543 38.113436 31.813045 C 38.149654 31.86996 38.227493 31.923055 38.346497 31.972209 L 38.776961 32.158761 C 38.88303 32.205327 38.969631 32.254298 39.036894 32.306038 C 39.104157 32.355192 39.157252 32.409317 39.196057 32.468819 C 39.23745 32.525734 39.266318 32.589139 39.28184 32.658988 C 39.297362 32.728838 39.305094 32.806677 39.305094 32.892049 C 39.305094 33.184384 39.219524 33.397794 39.048779 33.53232 C 38.880622 33.664259 38.645046 33.730241 38.342362 33.730241 C 38.026745 33.730241 37.800447 33.661682 37.663334 33.524569 C 37.528808 33.387456 37.461796 33.191056 37.461796 32.934941 L 37.461796 32.822286 L 38.020418 32.822286 L 38.020418 32.903418 C 38.020418 32.968094 38.025573 33.027891 38.035921 33.082218 C 38.046269 33.133959 38.065858 33.177775 38.094316 33.213993 C 38.122773 33.250212 38.159887 33.278563 38.206453 33.299259 C 38.255607 33.319956 38.316434 33.330265 38.388871 33.330265 C 38.474243 33.330265 38.550535 33.303461 38.617798 33.249133 C 38.687648 33.192218 38.722701 33.105618 38.722701 32.989201 C 38.722701 32.927112 38.713939 32.874017 38.695829 32.830037 C 38.680307 32.783471 38.652985 32.741716 38.614181 32.705497 C 38.575375 32.669279 38.523827 32.63732 38.459151 32.608862 C 38.397062 32.577818 38.319224 32.546372 38.22609 32.515328 C 38.101914 32.473935 37.994693 32.429089 37.904146 32.379936 C 37.8136 32.330782 37.737309 32.273563 37.67522 32.208887 C 37.615718 32.141624 37.571385 32.065332 37.542928 31.97996 C 37.514471 31.892001 37.500553 31.790966 37.500553 31.677136 C 37.500553 31.402911 37.576845 31.19878 37.72948 31.064254 C 37.882115 30.929728 38.091402 30.862716 38.357865 30.862716 z M 46.926335 30.862716 C 47.135884 30.862716 47.302901 30.898799 47.427079 30.971236 C 47.551257 31.041086 47.64559 31.139027 47.710266 31.265792 C 47.777529 31.392557 47.820314 31.545656 47.838424 31.724162 C 47.85912 31.90008 47.86943 32.092355 47.86943 32.301904 C 47.86943 32.514041 47.85912 32.708379 47.838424 32.884298 C 47.820314 33.060216 47.777529 33.211252 47.710266 33.338017 C 47.64559 33.464782 47.551257 33.562209 47.427079 33.629472 C 47.302901 33.696735 47.135884 33.730241 46.926335 33.730241 C 46.716785 33.730241 46.549768 33.696735 46.42559 33.629472 C 46.301412 33.562209 46.206049 33.464782 46.138786 33.338017 C 46.07411 33.211252 46.031325 33.060216 46.010628 32.884298 C 45.992519 32.708379 45.98324 32.514041 45.98324 32.301904 C 45.98324 32.092355 45.992519 31.90008 46.010628 31.724162 C 46.031325 31.545656 46.07411 31.392557 46.138786 31.265792 C 46.206049 31.139027 46.301412 31.041086 46.42559 30.971236 C 46.549768 30.898799 46.716785 30.862716 46.926335 30.862716 z M 11.659753 30.916976 L 12.57546 30.916976 C 12.769488 30.916976 12.926195 30.948935 13.045199 31.013611 C 13.164201 31.0757 13.255958 31.166425 13.320634 31.285429 C 13.387897 31.401846 13.43326 31.543088 13.456543 31.708659 C 13.479826 31.874229 13.491683 32.058771 13.491683 32.263147 C 13.491683 32.506328 13.475702 32.718708 13.444657 32.899801 C 13.4162 33.078305 13.366199 33.225734 13.293762 33.342151 C 13.221325 33.458568 13.123898 33.545169 13.002307 33.602083 C 12.880716 33.658998 12.727102 33.687349 12.540837 33.687349 L 11.659753 33.687349 L 11.659753 30.916976 z M 14.399638 30.916976 L 15.090035 30.916976 L 15.82384 33.687349 L 15.241447 33.687349 L 15.113289 33.101339 L 14.376383 33.101339 L 14.248226 33.687349 L 13.665833 33.687349 L 14.399638 30.916976 z M 15.656925 30.916976 L 17.426326 30.916976 L 17.426326 31.374829 L 16.821195 31.374829 L 16.821195 33.687349 L 16.262056 33.687349 L 16.262056 31.374829 L 15.656925 31.374829 L 15.656925 30.916976 z M 17.9927 30.916976 L 18.683614 30.916976 L 19.416903 33.687349 L 18.835026 33.687349 L 18.706868 33.101339 L 17.969446 33.101339 L 17.841288 33.687349 L 17.259412 33.687349 L 17.9927 30.916976 z M 20.251477 30.916976 L 22.020878 30.916976 L 22.020878 31.374829 L 21.415747 31.374829 L 21.415747 33.687349 L 20.856608 33.687349 L 20.856608 31.374829 L 20.251477 31.374829 L 20.251477 30.916976 z M 22.26169 30.916976 L 23.293669 30.916976 C 23.526501 30.916976 23.707436 30.976256 23.836788 31.09526 C 23.96614 31.211675 24.031091 31.390034 24.031091 31.630627 C 24.031091 31.816894 23.993461 31.969477 23.918437 32.088481 C 23.843413 32.204897 23.726913 32.280158 23.569104 32.31379 L 23.569104 32.321541 C 23.708804 32.342238 23.810869 32.3876 23.875545 32.45745 C 23.940221 32.5273 23.980429 32.639676 23.995951 32.794897 C 24.001125 32.846638 24.00525 32.903859 24.007837 32.965946 C 24.010424 33.025448 24.013001 33.09246 24.015588 33.167485 C 24.020762 33.314945 24.028495 33.427321 24.038843 33.504932 C 24.054365 33.582543 24.087871 33.635638 24.139612 33.664095 L 24.139612 33.687349 L 23.534481 33.687349 C 23.506023 33.648544 23.487982 33.604727 23.480221 33.555575 C 23.472459 33.503834 23.467305 33.450739 23.464718 33.396411 L 23.448698 32.864661 C 23.443524 32.756005 23.41672 32.670951 23.367566 32.608862 C 23.318412 32.546773 23.235419 32.515328 23.119002 32.515328 L 22.820312 32.515328 L 22.820312 33.687349 L 22.26169 33.687349 L 22.26169 30.916976 z M 24.958683 30.916976 L 25.64908 30.916976 L 26.382886 33.687349 L 25.800492 33.687349 L 25.672335 33.101339 L 24.935429 33.101339 L 24.807271 33.687349 L 24.224878 33.687349 L 24.958683 30.916976 z M 26.576672 30.916976 L 27.221077 30.916976 L 27.895972 32.814535 L 27.903723 32.814535 L 27.903723 30.916976 L 28.415837 30.916976 L 28.415837 33.687349 L 27.7797 33.687349 L 27.096537 31.747416 L 27.088786 31.747416 L 27.088786 33.687349 L 26.576672 33.687349 L 26.576672 30.916976 z M 30.818274 30.916976 L 32.3665 30.916976 L 32.3665 31.374829 L 31.376896 31.374829 L 31.376896 32.026469 L 32.308105 32.026469 L 32.308105 32.484322 L 31.376896 32.484322 L 31.376896 33.687349 L 30.818274 33.687349 L 30.818274 30.916976 z M 32.615063 30.916976 L 34.163289 30.916976 L 34.163289 31.374829 L 33.173686 31.374829 L 33.173686 32.026469 L 34.104895 32.026469 L 34.104895 32.484322 L 33.173686 32.484322 L 33.173686 33.229496 L 34.202047 33.229496 L 34.202047 33.687349 L 32.615063 33.687349 L 32.615063 30.916976 z M 34.481616 30.916976 L 35.513595 30.916976 C 35.746427 30.916976 35.927362 30.976256 36.056714 31.09526 C 36.186066 31.211675 36.251017 31.390034 36.251017 31.630627 C 36.251017 31.816894 36.213387 31.969477 36.138363 32.088481 C 36.063339 32.204897 35.946839 32.280158 35.78903 32.31379 L 35.78903 32.321541 C 35.92873 32.342238 36.030795 32.3876 36.095471 32.45745 C 36.160147 32.5273 36.200355 32.639676 36.215877 32.794897 C 36.221051 32.846638 36.225176 32.903859 36.227763 32.965946 C 36.23035 33.025448 36.232927 33.09246 36.235514 33.167485 C 36.240688 33.314945 36.248421 33.427321 36.258769 33.504932 C 36.274291 33.582543 36.307797 33.635638 36.359538 33.664095 L 36.359538 33.687349 L 35.754407 33.687349 C 35.725949 33.648544 35.707391 33.604727 35.69963 33.555575 C 35.691869 33.503834 35.686714 33.450739 35.684127 33.396411 L 35.668624 32.864661 C 35.66345 32.756005 35.636646 32.670951 35.587492 32.608862 C 35.538338 32.546773 35.455345 32.515328 35.338928 32.515328 L 35.040238 32.515328 L 35.040238 33.687349 L 34.481616 33.687349 L 34.481616 30.916976 z M 39.436869 30.916976 L 41.20627 30.916976 L 41.20627 31.374829 L 40.601139 31.374829 L 40.601139 33.687349 L 40.042 33.687349 L 40.042 31.374829 L 39.436869 31.374829 L 39.436869 30.916976 z M 41.773161 30.916976 L 42.463558 30.916976 L 43.196847 33.687349 L 42.61497 33.687349 L 42.486812 33.101339 L 41.74939 33.101339 L 41.621749 33.687349 L 41.039355 33.687349 L 41.773161 30.916976 z M 43.030448 30.916976 L 44.799849 30.916976 L 44.799849 31.374829 L 44.194202 31.374829 L 44.194202 33.687349 L 43.635579 33.687349 L 43.635579 31.374829 L 43.030448 31.374829 L 43.030448 30.916976 z M 45.067533 30.916976 L 45.626156 30.916976 L 45.626156 33.687349 L 45.067533 33.687349 L 45.067533 30.916976 z M 48.199125 30.916976 L 48.84353 30.916976 L 49.518424 32.814535 L 49.526176 32.814535 L 49.526176 30.916976 L 50.038289 30.916976 L 50.038289 33.687349 L 49.402153 33.687349 L 48.71899 31.747416 L 48.711239 31.747416 L 48.711239 33.687349 L 48.199125 33.687349 L 48.199125 30.916976 z M 46.926335 31.27406 C 46.843549 31.27406 46.776021 31.293132 46.72428 31.331938 C 46.675126 31.368156 46.636465 31.427953 46.608008 31.510738 C 46.582137 31.593523 46.564096 31.699196 46.553748 31.828548 C 46.545986 31.9579 46.542379 32.115638 46.542379 32.301904 C 46.542379 32.488171 46.545986 32.647456 46.553748 32.779395 C 46.564096 32.908745 46.582137 33.014936 46.608008 33.097721 C 46.636465 33.17792 46.675126 33.237199 46.72428 33.276005 C 46.776021 33.312224 46.843549 33.330265 46.926335 33.330265 C 47.00912 33.330265 47.075102 33.312224 47.124255 33.276005 C 47.175996 33.237199 47.214657 33.17792 47.240527 33.097721 C 47.268985 33.014936 47.287026 32.908745 47.294788 32.779395 C 47.305136 32.647456 47.310291 32.488171 47.310291 32.301904 C 47.310291 32.115638 47.305136 31.9579 47.294788 31.828548 C 47.287026 31.699196 47.268985 31.593523 47.240527 31.510738 C 47.214657 31.427953 47.175996 31.368156 47.124255 31.331938 C 47.075102 31.293132 47.00912 31.27406 46.926335 31.27406 z M 12.218376 31.32832 L 12.218376 33.276005 L 12.466939 33.276005 C 12.565247 33.276005 12.644115 33.25951 12.703617 33.225879 C 12.763119 33.192247 12.809512 33.136575 12.843144 33.058964 C 12.879362 32.981353 12.903076 32.879288 12.913424 32.752523 C 12.926359 32.625758 12.932544 32.467504 12.932544 32.27865 C 12.932544 32.120841 12.927389 31.982692 12.917041 31.863688 C 12.906693 31.744684 12.884527 31.646227 12.850895 31.568616 C 12.819851 31.488418 12.772427 31.429138 12.707751 31.390332 C 12.645664 31.348939 12.561639 31.32832 12.45557 31.32832 L 12.218376 31.32832 z M 22.820312 31.32832 L 22.820312 32.127755 L 23.053373 32.127755 C 23.187899 32.127755 23.290995 32.096309 23.363432 32.03422 C 23.435869 31.969544 23.472469 31.862324 23.472469 31.712276 C 23.472469 31.45616 23.343083 31.32832 23.084379 31.32832 L 22.820312 31.32832 z M 35.040238 31.32832 L 35.040238 32.127755 L 35.272782 32.127755 C 35.407308 32.127755 35.510921 32.096309 35.583358 32.03422 C 35.655795 31.969544 35.691878 31.862324 35.691878 31.712276 C 35.691878 31.45616 35.562492 31.32832 35.303788 31.32832 L 35.040238 31.32832 z M 14.741219 31.398083 L 14.473018 32.643486 L 15.016654 32.643486 L 14.748971 31.398083 L 14.741219 31.398083 z M 18.334281 31.398083 L 18.066597 32.643486 L 18.609717 32.643486 L 18.342033 31.398083 L 18.334281 31.398083 z M 25.299748 31.398083 L 25.032064 32.643486 L 25.5757 32.643486 L 25.307499 31.398083 L 25.299748 31.398083 z M 42.114225 31.398083 L 41.846541 32.643486 L 42.390177 32.643486 L 42.121977 31.398083 L 42.114225 31.398083 z " />
  </g>
</svg>
